Coordinates
version=1
nRows=27
nColumns=38
inDegrees=no

Units are S.I. units (second, meters, Newtons, ...)
If the header above contains a line with 'inDegrees', this indicates whether rotational values are in degrees (yes) or radians (no).

endheader
time	pelvis_tilt	pelvis_list	pelvis_rotation	pelvis_tx	pelvis_ty	pelvis_tz	hip_flexion_r	hip_adduction_r	hip_rotation_r	knee_angle_r	ankle_angle_r	subtalar_angle_r	mtp_angle_r	hip_flexion_l	hip_adduction_l	hip_rotation_l	knee_angle_l	ankle_angle_l	subtalar_angle_l	mtp_angle_l	lumbar_extension	lumbar_bending	lumbar_rotation	arm_flex_r	arm_add_r	arm_rot_r	elbow_flex_r	pro_sup_r	wrist_flex_r	wrist_dev_r	arm_flex_l	arm_add_l	arm_rot_l	elbow_flex_l	pro_sup_l	wrist_flex_l	wrist_dev_l
0	2.49356	1.48669	-0.911723	0.864869	-0.584299	1.04349	-0.0655571	-0.0875693	0.0696109	0.880396	-0.674163	0	0	0.157354	-0.0322924	-0.393633	0.389785	-0.104513	0	0	-0.45749	-0.0417468	0.126275	-0.107478	-0.510759	0.32266	0.788821	0.779402	0	0	-0.0815386	-0.399744	0.335969	0.544136	1.32519	0	0
0.01	2.41168	1.48698	-0.830817	0.863324	-0.572504	1.04436	-0.0290735	-0.0814366	0.0922344	0.933856	-0.612658	0	0	0.152553	-0.0367878	-0.392127	0.395174	-0.0978883	0	0	-0.450888	-0.0360349	0.126101	-0.112921	-0.51368	0.312674	0.793895	0.787761	0	0	-0.0785214	-0.400627	0.344286	0.546028	1.317	0	0
0.02	2.36887	1.48282	-0.783453	0.861035	-0.55993	1.04596	-0.00364477	-0.0759985	0.0991769	0.965559	-0.565418	0	0	0.140684	-0.0421137	-0.395144	0.39944	-0.0922313	0	0	-0.447697	-0.0276283	0.120375	-0.115099	-0.515698	0.308723	0.793203	0.7976	0	0	-0.0766123	-0.400432	0.348928	0.546431	1.31439	0	0
0.03	2.35136	1.47621	-0.759026	0.858467	-0.547276	1.04812	0.0159446	-0.07105	0.0990938	0.982724	-0.536768	0	0	0.124382	-0.0473992	-0.397189	0.401072	-0.089501	0	0	-0.447614	-0.0181542	0.112896	-0.115743	-0.518073	0.308141	0.791135	0.805749	0	0	-0.0740413	-0.399793	0.351105	0.547353	1.31458	0	0
0.04	2.34206	1.47043	-0.742501	0.856095	-0.534685	1.0504	0.033117	-0.0661286	0.102359	0.995564	-0.504265	0	0	0.107711	-0.0516182	-0.397693	0.401239	-0.0879419	0	0	-0.447053	-0.0102721	0.104869	-0.1157	-0.518676	0.307994	0.786951	0.813634	0	0	-0.0715328	-0.400312	0.351866	0.549901	1.31644	0	0
0.05	2.34952	1.46375	-0.742793	0.853865	-0.522193	1.05298	0.0479905	-0.0620016	0.102931	1.00362	-0.475158	0	0	0.0884276	-0.0556256	-0.398839	0.399644	-0.0880786	0	0	-0.448697	-0.00299276	0.0963502	-0.114709	-0.518627	0.308247	0.782432	0.820773	0	0	-0.0684737	-0.401411	0.352684	0.552623	1.31851	0	0
0.06	2.3696	1.45634	-0.756297	0.851813	-0.509784	1.05581	0.0599719	-0.058699	0.101392	1.0052	-0.448786	0	0	0.0667826	-0.0593254	-0.400425	0.396096	-0.0901907	0	0	-0.452224	0.00350912	0.0882133	-0.113623	-0.518267	0.308413	0.778923	0.827231	0	0	-0.0645614	-0.403277	0.354838	0.555625	1.32045	0	0
0.07	2.39691	1.4485	-0.778091	0.849997	-0.49738	1.05878	0.0694532	-0.0558308	0.0991537	1.0007	-0.423023	0	0	0.0432845	-0.0628823	-0.403342	0.390974	-0.0934919	0	0	-0.456696	0.00879673	0.0815332	-0.113079	-0.517374	0.308514	0.776002	0.833311	0	0	-0.0601403	-0.406393	0.358177	0.560322	1.32305	0	0
0.08	2.42826	1.44049	-0.804509	0.84837	-0.484909	1.0618	0.0771641	-0.0535919	0.0946539	0.991285	-0.398546	0	0	0.0182518	-0.0663114	-0.408185	0.384428	-0.0981311	0	0	-0.461472	0.0129165	0.076217	-0.114006	-0.51567	0.30763	0.773668	0.838827	0	0	-0.0558794	-0.410481	0.360396	0.567458	1.32618	0	0
0.09	2.46158	1.43169	-0.83422	0.846939	-0.472413	1.06483	0.0833378	-0.0509869	0.0894165	0.978936	-0.37407	0	0	-0.0087052	-0.0701699	-0.416595	0.376658	-0.103867	0	0	-0.467118	0.0163196	0.0729314	-0.116568	-0.513995	0.305562	0.77301	0.843869	0	0	-0.0520451	-0.414749	0.360337	0.576836	1.32894	0	0
0.1	2.49941	1.40655	-0.873466	0.846495	-0.460445	1.06831	0.0736435	-0.035051	0.0880123	0.959678	-0.338067	0	0	-0.0509556	-0.088394	-0.441139	0.372016	-0.109422	0	0	-0.548595	0.014354	0.191964	-0.241791	-0.500308	0.105542	0.862591	0.879981	0	0	0.0557732	-0.422694	0.460167	0.612765	1.34416	0	0
0.11	2.48975	1.40675	-0.853273	0.844475	-0.448902	1.07029	0.0916548	-0.0357655	0.0696796	0.943466	-0.316409	0	0	-0.0620757	-0.0888821	-0.431069	0.366714	-0.113875	0	0	-0.543413	0.019693	0.184769	-0.244062	-0.495444	0.102593	0.85867	0.884889	0	0	0.0658652	-0.426199	0.467572	0.617221	1.34359	0	0
0.12	2.48372	1.4056	-0.836649	0.842685	-0.437251	1.07226	0.107593	-0.036171	0.0477405	0.924895	-0.290335	0	0	-0.0752685	-0.0907589	-0.423589	0.360694	-0.119399	0	0	-0.53877	0.0260788	0.174464	-0.245075	-0.490936	0.101639	0.85657	0.890561	0	0	0.0724535	-0.430008	0.469446	0.623072	1.34342	0	0
0.13	2.484	1.40357	-0.824938	0.840977	-0.425546	1.07429	0.120036	-0.0368976	0.0208578	0.900776	-0.262405	0	0	-0.0902552	-0.0931645	-0.416647	0.353485	-0.126824	0	0	-0.526743	0.0376699	0.142489	-0.231267	-0.489153	0.119085	0.849885	0.899876	0	0	0.0620956	-0.4335	0.454742	0.623311	1.33771	0	0
0.14	2.51355	1.38868	-0.843291	0.838729	-0.414333	1.07688	0.115958	-0.0328607	-0.00935208	0.868583	-0.238892	0	0	-0.120946	-0.101594	-0.420616	0.343996	-0.135522	0	0	-0.591902	0.0326213	0.249751	-0.330501	-0.463373	-0.0241294	0.904764	0.900665	0	0	0.177877	-0.425677	0.565369	0.644487	1.34367	0	0
0.15	2.52147	1.37884	-0.840449	0.836938	-0.40278	1.07905	0.117909	-0.0283685	-0.0399193	0.832633	-0.228613	0	0	-0.145259	-0.10944	-0.422139	0.333819	-0.140607	0	0	-0.611938	0.0343638	0.273643	-0.349894	-0.454594	-0.0466342	0.910245	0.894755	0	0	0.210505	-0.425981	0.583979	0.666028	1.3478	0	0
0.16	2.44903	1.39829	-0.748711	0.835626	-0.390165	1.07945	0.152808	-0.0346429	-0.0829242	0.798071	-0.213598	0	0	-0.131975	-0.106029	-0.392113	0.324186	-0.15094	0	0	-0.477158	0.0575756	0.0346447	-0.149116	-0.476773	0.248342	0.769091	0.898977	0	0	6.73334e-05	-0.454557	0.355164	0.663553	1.34103	0	0
0.17	2.43022	1.39601	-0.714253	0.833702	-0.378734	1.08045	0.16385	-0.0326425	-0.120951	0.758221	-0.208635	0	0	-0.144423	-0.112256	-0.381302	0.315064	-0.154636	0	0	-0.474363	0.0657082	0.0221438	-0.146971	-0.474535	0.257147	0.764717	0.889915	0	0	0.00368432	-0.457652	0.337825	0.677887	1.35401	0	0
0.18	2.4128	1.39366	-0.681643	0.831925	-0.367326	1.08118	0.172328	-0.0297525	-0.156859	0.712448	-0.206261	0	0	-0.157335	-0.118843	-0.372794	0.305493	-0.158016	0	0	-0.471805	0.0734048	0.0106994	-0.146633	-0.471608	0.261939	0.761655	0.884396	0	0	0.00847884	-0.462097	0.325157	0.692873	1.36429	0	0
0.19	2.39607	1.39109	-0.651208	0.830399	-0.35594	1.08162	0.177688	-0.0247937	-0.186989	0.660288	-0.206121	0	0	-0.170901	-0.125675	-0.365872	0.295708	-0.160846	0	0	-0.46986	0.0805097	0.000471956	-0.146221	-0.468701	0.265614	0.7591	0.880938	0	0	0.0128446	-0.467122	0.312664	0.709537	1.37276	0	0
0.2	2.38058	1.38861	-0.624763	0.829238	-0.344411	1.08177	0.183445	-0.018166	-0.209948	0.609101	-0.207742	0	0	-0.185537	-0.132541	-0.363136	0.285422	-0.16259	0	0	-0.467881	0.0859837	-0.00659666	-0.146803	-0.465506	0.267467	0.756682	0.879111	0	0	0.0182761	-0.47269	0.303305	0.726149	1.37909	0	0
0.21	2.36565	1.38706	-0.599701	0.828196	-0.332909	1.08158	0.189059	-0.0117595	-0.227381	0.554673	-0.211527	0	0	-0.199556	-0.138906	-0.362759	0.275541	-0.16439	0	0	-0.466131	0.0904158	-0.0138183	-0.146358	-0.462223	0.269062	0.753953	0.878407	0	0	0.0231702	-0.478665	0.293089	0.743782	1.38642	0	0
0.22	2.35008	1.38662	-0.574952	0.8273	-0.321385	1.08098	0.195045	-0.00591463	-0.240177	0.49812	-0.217455	0	0	-0.21276	-0.144463	-0.363248	0.266001	-0.165528	0	0	-0.463904	0.0936465	-0.0209612	-0.145835	-0.459114	0.270229	0.751741	0.878732	0	0	0.0271583	-0.485142	0.282155	0.762574	1.39464	0	0
0.23	2.33645	1.38708	-0.552692	0.826498	-0.309827	1.08	0.19943	-0.000456912	-0.248391	0.438113	-0.224378	0	0	-0.225842	-0.148927	-0.36296	0.256387	-0.165567	0	0	-0.461685	0.0957224	-0.0280463	-0.145634	-0.456165	0.270664	0.75031	0.879648	0	0	0.0306757	-0.491834	0.270761	0.782482	1.40216	0	0
0.24	2.31936	1.38878	-0.527866	0.825832	-0.298345	1.07864	0.203287	0.00480196	-0.252197	0.373971	-0.233862	0	0	-0.237342	-0.152545	-0.362297	0.247493	-0.164037	0	0	-0.459403	0.0964633	-0.0356399	-0.144023	-0.453127	0.271707	0.748528	0.881703	0	0	0.032814	-0.498322	0.255834	0.804029	1.41157	0	0
0.25	2.2991	1.3915	-0.500874	0.825273	-0.286883	1.07686	0.206136	0.0103722	-0.250112	0.306639	-0.242611	0	0	-0.247586	-0.155308	-0.361648	0.239589	-0.161458	0	0	-0.456149	0.0963729	-0.042142	-0.142757	-0.450553	0.272474	0.746843	0.884251	0	0	0.0360149	-0.504797	0.243346	0.824194	1.42106	0	0
0.26	2.27586	1.39503	-0.472407	0.824867	-0.275258	1.07463	0.207896	0.0159231	-0.239938	0.23615	-0.252104	0	0	-0.257414	-0.157276	-0.362004	0.232147	-0.157924	0	0	-0.452129	0.0953728	-0.0474568	-0.142008	-0.448572	0.273059	0.745704	0.887384	0	0	0.0392069	-0.511376	0.232101	0.843766	1.43061	0	0
